<mxfile host="app.diagrams.net" modified="2021-10-25T05:21:45.740Z" agent="5.0 (Windows NT 10.0; Win64; x64) AppleWebKit/537.36 (KHTML, like Gecko) Chrome/92.0.4515.159 Safari/537.36" etag="kV8KyNMXayzc_mP3Us5R" version="15.5.1" type="github" pages="3">
  <diagram id="3OGJys61MQPhKgDNW8TY" name="BIO">
    <mxGraphModel dx="770" dy="520" grid="1" gridSize="10" guides="1" tooltips="1" connect="1" arrows="1" fold="1" page="1" pageScale="1" pageWidth="827" pageHeight="1169" math="0" shadow="0">
      <root>
        <mxCell id="0" />
        <mxCell id="1" parent="0" />
        <mxCell id="hCxm3OudTgjIlf8_mDe6-1" value="" style="group" parent="1" vertex="1" connectable="0">
          <mxGeometry x="40" y="80" width="760" height="340" as="geometry" />
        </mxCell>
        <mxCell id="zD_Bm02DHdZ7qlQKV9rI-14" value="BIO" style="rounded=0;whiteSpace=wrap;html=1;strokeWidth=2;fillColor=#FFFFFF;dashed=1;verticalAlign=top;fontStyle=1;fontSize=20;" parent="hCxm3OudTgjIlf8_mDe6-1" vertex="1">
          <mxGeometry width="760" height="340" as="geometry" />
        </mxCell>
        <mxCell id="zD_Bm02DHdZ7qlQKV9rI-1" value="client" style="rounded=0;whiteSpace=wrap;html=1;strokeWidth=2;fillColor=#97D077;" parent="hCxm3OudTgjIlf8_mDe6-1" vertex="1">
          <mxGeometry x="30" y="70" width="120" height="60" as="geometry" />
        </mxCell>
        <mxCell id="zD_Bm02DHdZ7qlQKV9rI-2" value="client" style="rounded=0;whiteSpace=wrap;html=1;strokeWidth=2;fillColor=#97D077;" parent="hCxm3OudTgjIlf8_mDe6-1" vertex="1">
          <mxGeometry x="30" y="160" width="120" height="60" as="geometry" />
        </mxCell>
        <mxCell id="zD_Bm02DHdZ7qlQKV9rI-3" value="client" style="rounded=0;whiteSpace=wrap;html=1;strokeWidth=2;fillColor=#97D077;" parent="hCxm3OudTgjIlf8_mDe6-1" vertex="1">
          <mxGeometry x="30" y="250" width="120" height="60" as="geometry" />
        </mxCell>
        <mxCell id="zD_Bm02DHdZ7qlQKV9rI-4" value="Thread" style="ellipse;whiteSpace=wrap;html=1;aspect=fixed;strokeWidth=2;fillColor=#7EA6E0;" parent="hCxm3OudTgjIlf8_mDe6-1" vertex="1">
          <mxGeometry x="320" y="60" width="80" height="80" as="geometry" />
        </mxCell>
        <mxCell id="zD_Bm02DHdZ7qlQKV9rI-5" style="edgeStyle=orthogonalEdgeStyle;rounded=0;orthogonalLoop=1;jettySize=auto;html=1;exitX=1;exitY=0.5;exitDx=0;exitDy=0;entryX=0;entryY=0.5;entryDx=0;entryDy=0;strokeWidth=2;" parent="hCxm3OudTgjIlf8_mDe6-1" source="zD_Bm02DHdZ7qlQKV9rI-1" target="zD_Bm02DHdZ7qlQKV9rI-4" edge="1">
          <mxGeometry relative="1" as="geometry" />
        </mxCell>
        <mxCell id="zD_Bm02DHdZ7qlQKV9rI-6" value="Thread" style="ellipse;whiteSpace=wrap;html=1;aspect=fixed;strokeWidth=2;fillColor=#7EA6E0;" parent="hCxm3OudTgjIlf8_mDe6-1" vertex="1">
          <mxGeometry x="320" y="150" width="80" height="80" as="geometry" />
        </mxCell>
        <mxCell id="zD_Bm02DHdZ7qlQKV9rI-8" style="edgeStyle=orthogonalEdgeStyle;rounded=0;orthogonalLoop=1;jettySize=auto;html=1;exitX=1;exitY=0.5;exitDx=0;exitDy=0;entryX=0;entryY=0.5;entryDx=0;entryDy=0;strokeWidth=2;" parent="hCxm3OudTgjIlf8_mDe6-1" source="zD_Bm02DHdZ7qlQKV9rI-2" target="zD_Bm02DHdZ7qlQKV9rI-6" edge="1">
          <mxGeometry relative="1" as="geometry" />
        </mxCell>
        <mxCell id="zD_Bm02DHdZ7qlQKV9rI-7" value="Thread" style="ellipse;whiteSpace=wrap;html=1;aspect=fixed;strokeWidth=2;fillColor=#7EA6E0;" parent="hCxm3OudTgjIlf8_mDe6-1" vertex="1">
          <mxGeometry x="320" y="240" width="80" height="80" as="geometry" />
        </mxCell>
        <mxCell id="zD_Bm02DHdZ7qlQKV9rI-9" style="edgeStyle=orthogonalEdgeStyle;rounded=0;orthogonalLoop=1;jettySize=auto;html=1;exitX=1;exitY=0.5;exitDx=0;exitDy=0;entryX=0;entryY=0.5;entryDx=0;entryDy=0;strokeWidth=2;" parent="hCxm3OudTgjIlf8_mDe6-1" source="zD_Bm02DHdZ7qlQKV9rI-3" target="zD_Bm02DHdZ7qlQKV9rI-7" edge="1">
          <mxGeometry relative="1" as="geometry" />
        </mxCell>
        <mxCell id="zD_Bm02DHdZ7qlQKV9rI-11" style="edgeStyle=orthogonalEdgeStyle;rounded=0;orthogonalLoop=1;jettySize=auto;html=1;exitX=0;exitY=0.25;exitDx=0;exitDy=0;entryX=1;entryY=0.5;entryDx=0;entryDy=0;strokeWidth=2;" parent="hCxm3OudTgjIlf8_mDe6-1" source="zD_Bm02DHdZ7qlQKV9rI-10" target="zD_Bm02DHdZ7qlQKV9rI-4" edge="1">
          <mxGeometry relative="1" as="geometry" />
        </mxCell>
        <mxCell id="zD_Bm02DHdZ7qlQKV9rI-12" style="edgeStyle=orthogonalEdgeStyle;rounded=0;orthogonalLoop=1;jettySize=auto;html=1;exitX=0;exitY=0.5;exitDx=0;exitDy=0;entryX=1;entryY=0.5;entryDx=0;entryDy=0;strokeWidth=2;" parent="hCxm3OudTgjIlf8_mDe6-1" source="zD_Bm02DHdZ7qlQKV9rI-10" target="zD_Bm02DHdZ7qlQKV9rI-6" edge="1">
          <mxGeometry relative="1" as="geometry" />
        </mxCell>
        <mxCell id="zD_Bm02DHdZ7qlQKV9rI-13" style="edgeStyle=orthogonalEdgeStyle;rounded=0;orthogonalLoop=1;jettySize=auto;html=1;exitX=0;exitY=0.75;exitDx=0;exitDy=0;entryX=1;entryY=0.5;entryDx=0;entryDy=0;strokeWidth=2;" parent="hCxm3OudTgjIlf8_mDe6-1" source="zD_Bm02DHdZ7qlQKV9rI-10" target="zD_Bm02DHdZ7qlQKV9rI-7" edge="1">
          <mxGeometry relative="1" as="geometry" />
        </mxCell>
        <mxCell id="zD_Bm02DHdZ7qlQKV9rI-10" value="Server" style="rounded=0;whiteSpace=wrap;html=1;strokeWidth=2;fillColor=#F19C99;" parent="hCxm3OudTgjIlf8_mDe6-1" vertex="1">
          <mxGeometry x="580" y="135" width="160" height="110" as="geometry" />
        </mxCell>
      </root>
    </mxGraphModel>
  </diagram>
  <diagram id="9C4KTq4ikfud7Tvf5XZb" name="NIO">
    <mxGraphModel dx="3272" dy="2312" grid="1" gridSize="10" guides="1" tooltips="1" connect="1" arrows="1" fold="1" page="1" pageScale="1" pageWidth="827" pageHeight="1169" math="0" shadow="0">
      <root>
        <mxCell id="dSXkJ1JNR2xciTBvSpD8-0" />
        <mxCell id="dSXkJ1JNR2xciTBvSpD8-1" parent="dSXkJ1JNR2xciTBvSpD8-0" />
        <mxCell id="ickZ9vs7wqnhc2TO6Mt6-43" value="NIO" style="rounded=0;whiteSpace=wrap;html=1;fontSize=20;strokeWidth=2;fillColor=#FFFFFF;verticalAlign=top;fontStyle=1;dashed=1;" vertex="1" parent="dSXkJ1JNR2xciTBvSpD8-1">
          <mxGeometry x="120" y="120" width="1280" height="440" as="geometry" />
        </mxCell>
        <mxCell id="ickZ9vs7wqnhc2TO6Mt6-5" style="edgeStyle=orthogonalEdgeStyle;rounded=0;orthogonalLoop=1;jettySize=auto;html=1;exitX=1;exitY=0.5;exitDx=0;exitDy=0;entryX=0;entryY=0.5;entryDx=0;entryDy=0;fontSize=12;strokeWidth=2;" edge="1" parent="dSXkJ1JNR2xciTBvSpD8-1" source="e3nycXKgch4JCGFY6oAM-0" target="ickZ9vs7wqnhc2TO6Mt6-2">
          <mxGeometry relative="1" as="geometry" />
        </mxCell>
        <mxCell id="ickZ9vs7wqnhc2TO6Mt6-40" style="edgeStyle=orthogonalEdgeStyle;rounded=0;orthogonalLoop=1;jettySize=auto;html=1;exitX=0.5;exitY=0;exitDx=0;exitDy=0;fontSize=12;strokeWidth=2;entryX=0.5;entryY=0;entryDx=0;entryDy=0;" edge="1" parent="dSXkJ1JNR2xciTBvSpD8-1" source="e3nycXKgch4JCGFY6oAM-0" target="ickZ9vs7wqnhc2TO6Mt6-27">
          <mxGeometry relative="1" as="geometry">
            <mxPoint x="870" y="160" as="targetPoint" />
          </mxGeometry>
        </mxCell>
        <mxCell id="ickZ9vs7wqnhc2TO6Mt6-41" value="客户端连接" style="edgeLabel;html=1;align=center;verticalAlign=middle;resizable=0;points=[];fontSize=12;" vertex="1" connectable="0" parent="ickZ9vs7wqnhc2TO6Mt6-40">
          <mxGeometry x="-0.0223" y="-1" relative="1" as="geometry">
            <mxPoint as="offset" />
          </mxGeometry>
        </mxCell>
        <mxCell id="e3nycXKgch4JCGFY6oAM-0" value="client 1" style="rounded=0;whiteSpace=wrap;html=1;strokeWidth=2;fillColor=#97D077;" vertex="1" parent="dSXkJ1JNR2xciTBvSpD8-1">
          <mxGeometry x="150" y="200" width="120" height="60" as="geometry" />
        </mxCell>
        <mxCell id="ickZ9vs7wqnhc2TO6Mt6-6" style="edgeStyle=orthogonalEdgeStyle;rounded=0;orthogonalLoop=1;jettySize=auto;html=1;exitX=1;exitY=0.5;exitDx=0;exitDy=0;entryX=0;entryY=0.5;entryDx=0;entryDy=0;fontSize=12;strokeWidth=2;" edge="1" parent="dSXkJ1JNR2xciTBvSpD8-1" source="ickZ9vs7wqnhc2TO6Mt6-0" target="ickZ9vs7wqnhc2TO6Mt6-3">
          <mxGeometry relative="1" as="geometry" />
        </mxCell>
        <mxCell id="ickZ9vs7wqnhc2TO6Mt6-0" value="client 2" style="rounded=0;whiteSpace=wrap;html=1;strokeWidth=2;fillColor=#97D077;" vertex="1" parent="dSXkJ1JNR2xciTBvSpD8-1">
          <mxGeometry x="150" y="310" width="120" height="60" as="geometry" />
        </mxCell>
        <mxCell id="ickZ9vs7wqnhc2TO6Mt6-7" style="edgeStyle=orthogonalEdgeStyle;rounded=0;orthogonalLoop=1;jettySize=auto;html=1;exitX=1;exitY=0.5;exitDx=0;exitDy=0;entryX=0;entryY=0.5;entryDx=0;entryDy=0;fontSize=12;strokeWidth=2;" edge="1" parent="dSXkJ1JNR2xciTBvSpD8-1" source="ickZ9vs7wqnhc2TO6Mt6-1" target="ickZ9vs7wqnhc2TO6Mt6-4">
          <mxGeometry relative="1" as="geometry" />
        </mxCell>
        <mxCell id="ickZ9vs7wqnhc2TO6Mt6-1" value="client 3" style="rounded=0;whiteSpace=wrap;html=1;strokeWidth=2;fillColor=#97D077;" vertex="1" parent="dSXkJ1JNR2xciTBvSpD8-1">
          <mxGeometry x="150" y="420" width="120" height="60" as="geometry" />
        </mxCell>
        <mxCell id="ickZ9vs7wqnhc2TO6Mt6-12" style="edgeStyle=orthogonalEdgeStyle;rounded=0;orthogonalLoop=1;jettySize=auto;html=1;exitX=1;exitY=0.5;exitDx=0;exitDy=0;entryX=0.5;entryY=1;entryDx=0;entryDy=0;entryPerimeter=0;fontSize=12;strokeWidth=2;" edge="1" parent="dSXkJ1JNR2xciTBvSpD8-1" source="ickZ9vs7wqnhc2TO6Mt6-2" target="ickZ9vs7wqnhc2TO6Mt6-9">
          <mxGeometry relative="1" as="geometry" />
        </mxCell>
        <mxCell id="ickZ9vs7wqnhc2TO6Mt6-2" value="buffer" style="rounded=1;whiteSpace=wrap;html=1;fontSize=12;strokeWidth=2;fillColor=#FFD966;verticalAlign=middle;" vertex="1" parent="dSXkJ1JNR2xciTBvSpD8-1">
          <mxGeometry x="323" y="205" width="66" height="50" as="geometry" />
        </mxCell>
        <mxCell id="ickZ9vs7wqnhc2TO6Mt6-13" style="edgeStyle=orthogonalEdgeStyle;rounded=0;orthogonalLoop=1;jettySize=auto;html=1;exitX=1;exitY=0.5;exitDx=0;exitDy=0;entryX=0.5;entryY=1;entryDx=0;entryDy=0;entryPerimeter=0;fontSize=12;strokeWidth=2;" edge="1" parent="dSXkJ1JNR2xciTBvSpD8-1" source="ickZ9vs7wqnhc2TO6Mt6-3" target="ickZ9vs7wqnhc2TO6Mt6-10">
          <mxGeometry relative="1" as="geometry" />
        </mxCell>
        <mxCell id="ickZ9vs7wqnhc2TO6Mt6-3" value="buffer" style="rounded=1;whiteSpace=wrap;html=1;fontSize=12;strokeWidth=2;fillColor=#FFD966;verticalAlign=middle;" vertex="1" parent="dSXkJ1JNR2xciTBvSpD8-1">
          <mxGeometry x="323" y="315" width="66" height="50" as="geometry" />
        </mxCell>
        <mxCell id="ickZ9vs7wqnhc2TO6Mt6-14" style="edgeStyle=orthogonalEdgeStyle;rounded=0;orthogonalLoop=1;jettySize=auto;html=1;exitX=1;exitY=0.5;exitDx=0;exitDy=0;entryX=0.5;entryY=1;entryDx=0;entryDy=0;entryPerimeter=0;fontSize=12;strokeWidth=2;" edge="1" parent="dSXkJ1JNR2xciTBvSpD8-1" source="ickZ9vs7wqnhc2TO6Mt6-4" target="ickZ9vs7wqnhc2TO6Mt6-11">
          <mxGeometry relative="1" as="geometry" />
        </mxCell>
        <mxCell id="ickZ9vs7wqnhc2TO6Mt6-4" value="buffer" style="rounded=1;whiteSpace=wrap;html=1;fontSize=12;strokeWidth=2;fillColor=#FFD966;verticalAlign=middle;" vertex="1" parent="dSXkJ1JNR2xciTBvSpD8-1">
          <mxGeometry x="323" y="425" width="66" height="50" as="geometry" />
        </mxCell>
        <mxCell id="ickZ9vs7wqnhc2TO6Mt6-18" style="edgeStyle=orthogonalEdgeStyle;rounded=0;orthogonalLoop=1;jettySize=auto;html=1;exitX=0.5;exitY=0;exitDx=0;exitDy=0;exitPerimeter=0;fontSize=12;strokeWidth=2;" edge="1" parent="dSXkJ1JNR2xciTBvSpD8-1" source="ickZ9vs7wqnhc2TO6Mt6-9" target="ickZ9vs7wqnhc2TO6Mt6-15">
          <mxGeometry relative="1" as="geometry" />
        </mxCell>
        <mxCell id="ickZ9vs7wqnhc2TO6Mt6-19" value="注册" style="edgeLabel;html=1;align=center;verticalAlign=middle;resizable=0;points=[];fontSize=12;" vertex="1" connectable="0" parent="ickZ9vs7wqnhc2TO6Mt6-18">
          <mxGeometry x="-0.36" y="3" relative="1" as="geometry">
            <mxPoint as="offset" />
          </mxGeometry>
        </mxCell>
        <mxCell id="ickZ9vs7wqnhc2TO6Mt6-9" value="socketChannel" style="shape=cylinder3;boundedLbl=1;backgroundOutline=1;size=15;fontSize=12;strokeWidth=2;fillColor=#99FFFF;verticalAlign=middle;rotation=90;html=1;whiteSpace=wrap;labelPosition=center;verticalLabelPosition=middle;align=center;horizontal=0;" vertex="1" parent="dSXkJ1JNR2xciTBvSpD8-1">
          <mxGeometry x="520" y="130" width="50" height="200" as="geometry" />
        </mxCell>
        <mxCell id="ickZ9vs7wqnhc2TO6Mt6-16" style="edgeStyle=orthogonalEdgeStyle;rounded=0;orthogonalLoop=1;jettySize=auto;html=1;exitX=0.5;exitY=0;exitDx=0;exitDy=0;exitPerimeter=0;entryX=0;entryY=0.5;entryDx=0;entryDy=0;fontSize=12;strokeWidth=2;" edge="1" parent="dSXkJ1JNR2xciTBvSpD8-1" source="ickZ9vs7wqnhc2TO6Mt6-10" target="ickZ9vs7wqnhc2TO6Mt6-15">
          <mxGeometry relative="1" as="geometry" />
        </mxCell>
        <mxCell id="ickZ9vs7wqnhc2TO6Mt6-17" value="注册" style="edgeLabel;html=1;align=center;verticalAlign=middle;resizable=0;points=[];fontSize=12;" vertex="1" connectable="0" parent="ickZ9vs7wqnhc2TO6Mt6-16">
          <mxGeometry x="0.2" relative="1" as="geometry">
            <mxPoint as="offset" />
          </mxGeometry>
        </mxCell>
        <mxCell id="ickZ9vs7wqnhc2TO6Mt6-10" value="socketChannel" style="shape=cylinder3;boundedLbl=1;backgroundOutline=1;size=15;fontSize=12;strokeWidth=2;fillColor=#99FFFF;verticalAlign=middle;rotation=90;html=1;whiteSpace=wrap;labelPosition=center;verticalLabelPosition=middle;align=center;horizontal=0;" vertex="1" parent="dSXkJ1JNR2xciTBvSpD8-1">
          <mxGeometry x="520" y="240" width="50" height="200" as="geometry" />
        </mxCell>
        <mxCell id="ickZ9vs7wqnhc2TO6Mt6-20" style="edgeStyle=orthogonalEdgeStyle;rounded=0;orthogonalLoop=1;jettySize=auto;html=1;exitX=0.5;exitY=0;exitDx=0;exitDy=0;exitPerimeter=0;entryX=0.25;entryY=1;entryDx=0;entryDy=0;fontSize=12;strokeWidth=2;" edge="1" parent="dSXkJ1JNR2xciTBvSpD8-1" source="ickZ9vs7wqnhc2TO6Mt6-11" target="ickZ9vs7wqnhc2TO6Mt6-15">
          <mxGeometry relative="1" as="geometry" />
        </mxCell>
        <mxCell id="ickZ9vs7wqnhc2TO6Mt6-21" value="注册" style="edgeLabel;html=1;align=center;verticalAlign=middle;resizable=0;points=[];fontSize=12;" vertex="1" connectable="0" parent="ickZ9vs7wqnhc2TO6Mt6-20">
          <mxGeometry x="-0.1818" y="1" relative="1" as="geometry">
            <mxPoint as="offset" />
          </mxGeometry>
        </mxCell>
        <mxCell id="ickZ9vs7wqnhc2TO6Mt6-42" style="edgeStyle=orthogonalEdgeStyle;rounded=0;orthogonalLoop=1;jettySize=auto;html=1;exitX=1;exitY=0.5;exitDx=0;exitDy=0;exitPerimeter=0;entryX=0;entryY=0.5;entryDx=0;entryDy=0;fontSize=12;strokeWidth=2;dashed=1;" edge="1" parent="dSXkJ1JNR2xciTBvSpD8-1" source="ickZ9vs7wqnhc2TO6Mt6-11" target="ickZ9vs7wqnhc2TO6Mt6-37">
          <mxGeometry relative="1" as="geometry" />
        </mxCell>
        <mxCell id="ickZ9vs7wqnhc2TO6Mt6-11" value="socketChannel" style="shape=cylinder3;boundedLbl=1;backgroundOutline=1;size=15;fontSize=12;strokeWidth=2;fillColor=#99FFFF;verticalAlign=middle;rotation=90;html=1;whiteSpace=wrap;labelPosition=center;verticalLabelPosition=middle;align=center;horizontal=0;" vertex="1" parent="dSXkJ1JNR2xciTBvSpD8-1">
          <mxGeometry x="520" y="350" width="50" height="200" as="geometry" />
        </mxCell>
        <mxCell id="ickZ9vs7wqnhc2TO6Mt6-25" style="edgeStyle=orthogonalEdgeStyle;rounded=0;orthogonalLoop=1;jettySize=auto;html=1;exitX=1;exitY=0.5;exitDx=0;exitDy=0;entryX=0;entryY=0.5;entryDx=0;entryDy=0;fontSize=12;strokeWidth=2;" edge="1" parent="dSXkJ1JNR2xciTBvSpD8-1" source="ickZ9vs7wqnhc2TO6Mt6-15" target="ickZ9vs7wqnhc2TO6Mt6-24">
          <mxGeometry relative="1" as="geometry" />
        </mxCell>
        <mxCell id="ickZ9vs7wqnhc2TO6Mt6-15" value="selector(多路复用器)" style="rounded=0;whiteSpace=wrap;html=1;fontSize=12;strokeWidth=2;fillColor=#D5E8D4;verticalAlign=middle;" vertex="1" parent="dSXkJ1JNR2xciTBvSpD8-1">
          <mxGeometry x="760" y="292.5" width="170" height="95" as="geometry" />
        </mxCell>
        <mxCell id="ickZ9vs7wqnhc2TO6Mt6-23" value="就绪事件&lt;br&gt;列表rdlist" style="shape=note;strokeWidth=2;fontSize=14;size=20;whiteSpace=wrap;html=1;fillColor=#fff2cc;strokeColor=#d6b656;fontColor=#666600;verticalAlign=middle;" vertex="1" parent="dSXkJ1JNR2xciTBvSpD8-1">
          <mxGeometry x="850" y="250" width="100" height="40" as="geometry" />
        </mxCell>
        <mxCell id="ickZ9vs7wqnhc2TO6Mt6-24" value="Thread" style="shape=process;whiteSpace=wrap;html=1;backgroundOutline=1;fontSize=12;strokeWidth=2;fillColor=#7EA6E0;verticalAlign=middle;" vertex="1" parent="dSXkJ1JNR2xciTBvSpD8-1">
          <mxGeometry x="1000" y="310" width="120" height="60" as="geometry" />
        </mxCell>
        <mxCell id="ickZ9vs7wqnhc2TO6Mt6-28" value="" style="group" vertex="1" connectable="0" parent="dSXkJ1JNR2xciTBvSpD8-1">
          <mxGeometry x="1200" y="290" width="150" height="100" as="geometry" />
        </mxCell>
        <mxCell id="ickZ9vs7wqnhc2TO6Mt6-26" value="Server" style="rounded=0;whiteSpace=wrap;html=1;fontSize=12;strokeWidth=2;fillColor=#F19C99;verticalAlign=middle;" vertex="1" parent="ickZ9vs7wqnhc2TO6Mt6-28">
          <mxGeometry width="150" height="100" as="geometry" />
        </mxCell>
        <mxCell id="ickZ9vs7wqnhc2TO6Mt6-27" value="9000" style="rounded=0;whiteSpace=wrap;html=1;fontSize=12;strokeWidth=2;fillColor=#FFD966;verticalAlign=middle;" vertex="1" parent="ickZ9vs7wqnhc2TO6Mt6-28">
          <mxGeometry width="60" height="30" as="geometry" />
        </mxCell>
        <mxCell id="ickZ9vs7wqnhc2TO6Mt6-29" style="edgeStyle=orthogonalEdgeStyle;rounded=0;orthogonalLoop=1;jettySize=auto;html=1;exitX=0;exitY=0.5;exitDx=0;exitDy=0;entryX=1;entryY=0.5;entryDx=0;entryDy=0;fontSize=12;strokeWidth=2;" edge="1" parent="dSXkJ1JNR2xciTBvSpD8-1" source="ickZ9vs7wqnhc2TO6Mt6-26" target="ickZ9vs7wqnhc2TO6Mt6-24">
          <mxGeometry relative="1" as="geometry" />
        </mxCell>
        <mxCell id="ickZ9vs7wqnhc2TO6Mt6-33" style="edgeStyle=orthogonalEdgeStyle;rounded=0;orthogonalLoop=1;jettySize=auto;html=1;exitX=0;exitY=0;exitDx=0;exitDy=116.25;exitPerimeter=0;fontSize=12;strokeWidth=2;" edge="1" parent="dSXkJ1JNR2xciTBvSpD8-1" source="ickZ9vs7wqnhc2TO6Mt6-31" target="ickZ9vs7wqnhc2TO6Mt6-27">
          <mxGeometry relative="1" as="geometry" />
        </mxCell>
        <mxCell id="ickZ9vs7wqnhc2TO6Mt6-34" value="监听" style="edgeLabel;html=1;align=center;verticalAlign=middle;resizable=0;points=[];fontSize=12;" vertex="1" connectable="0" parent="ickZ9vs7wqnhc2TO6Mt6-33">
          <mxGeometry x="-0.3561" relative="1" as="geometry">
            <mxPoint as="offset" />
          </mxGeometry>
        </mxCell>
        <mxCell id="ickZ9vs7wqnhc2TO6Mt6-35" style="edgeStyle=orthogonalEdgeStyle;rounded=0;orthogonalLoop=1;jettySize=auto;html=1;exitX=0.5;exitY=1;exitDx=0;exitDy=0;exitPerimeter=0;entryX=0.75;entryY=1;entryDx=0;entryDy=0;fontSize=12;strokeWidth=2;" edge="1" parent="dSXkJ1JNR2xciTBvSpD8-1" source="ickZ9vs7wqnhc2TO6Mt6-31" target="ickZ9vs7wqnhc2TO6Mt6-15">
          <mxGeometry relative="1" as="geometry" />
        </mxCell>
        <mxCell id="ickZ9vs7wqnhc2TO6Mt6-36" value="注册" style="edgeLabel;html=1;align=center;verticalAlign=middle;resizable=0;points=[];fontSize=12;" vertex="1" connectable="0" parent="ickZ9vs7wqnhc2TO6Mt6-35">
          <mxGeometry x="0.0929" y="-1" relative="1" as="geometry">
            <mxPoint as="offset" />
          </mxGeometry>
        </mxCell>
        <mxCell id="ickZ9vs7wqnhc2TO6Mt6-38" style="edgeStyle=orthogonalEdgeStyle;rounded=0;orthogonalLoop=1;jettySize=auto;html=1;exitX=1;exitY=0;exitDx=0;exitDy=116.25;exitPerimeter=0;entryX=1;entryY=0.5;entryDx=0;entryDy=0;fontSize=12;strokeWidth=2;dashed=1;" edge="1" parent="dSXkJ1JNR2xciTBvSpD8-1" source="ickZ9vs7wqnhc2TO6Mt6-31" target="ickZ9vs7wqnhc2TO6Mt6-37">
          <mxGeometry relative="1" as="geometry" />
        </mxCell>
        <mxCell id="ickZ9vs7wqnhc2TO6Mt6-39" value="channel注册完返回的&lt;br&gt;SelectionKey与channel绑定" style="edgeLabel;html=1;align=center;verticalAlign=middle;resizable=0;points=[];fontSize=12;" vertex="1" connectable="0" parent="ickZ9vs7wqnhc2TO6Mt6-38">
          <mxGeometry x="0.167" relative="1" as="geometry">
            <mxPoint as="offset" />
          </mxGeometry>
        </mxCell>
        <mxCell id="ickZ9vs7wqnhc2TO6Mt6-31" value="ServerSocketChannel" style="shape=cylinder3;whiteSpace=wrap;html=1;boundedLbl=1;backgroundOutline=1;size=15;fontSize=12;strokeWidth=2;fillColor=#99FFFF;verticalAlign=middle;rotation=90;horizontal=0;" vertex="1" parent="dSXkJ1JNR2xciTBvSpD8-1">
          <mxGeometry x="1257.5" y="330" width="35" height="165" as="geometry" />
        </mxCell>
        <mxCell id="ickZ9vs7wqnhc2TO6Mt6-37" value="SelectionKey" style="rounded=0;whiteSpace=wrap;html=1;fontSize=12;strokeWidth=2;fillColor=#99FFFF;verticalAlign=middle;" vertex="1" parent="dSXkJ1JNR2xciTBvSpD8-1">
          <mxGeometry x="890" y="490" width="120" height="40" as="geometry" />
        </mxCell>
      </root>
    </mxGraphModel>
  </diagram>
  <diagram id="LVAlEijrG5EFmigY7SKU" name="第 3 页">
    <mxGraphModel dx="1135" dy="208" grid="1" gridSize="10" guides="1" tooltips="1" connect="1" arrows="1" fold="1" page="1" pageScale="1" pageWidth="827" pageHeight="1169" math="0" shadow="0">
      <root>
        <mxCell id="IEIGdqeCX3gwOpgYw1Vy-0" />
        <mxCell id="IEIGdqeCX3gwOpgYw1Vy-1" parent="IEIGdqeCX3gwOpgYw1Vy-0" />
        <mxCell id="IEIGdqeCX3gwOpgYw1Vy-4" value="" style="edgeStyle=orthogonalEdgeStyle;rounded=0;orthogonalLoop=1;jettySize=auto;html=1;fontSize=13;strokeWidth=2;" parent="IEIGdqeCX3gwOpgYw1Vy-1" source="IEIGdqeCX3gwOpgYw1Vy-2" target="IEIGdqeCX3gwOpgYw1Vy-3" edge="1">
          <mxGeometry relative="1" as="geometry" />
        </mxCell>
        <mxCell id="IEIGdqeCX3gwOpgYw1Vy-2" value="Selector.open()" style="rounded=0;whiteSpace=wrap;html=1;fontSize=13;strokeWidth=2;fillColor=#97D077;verticalAlign=middle;" parent="IEIGdqeCX3gwOpgYw1Vy-1" vertex="1">
          <mxGeometry x="70" y="40" width="100" height="40" as="geometry" />
        </mxCell>
        <mxCell id="IEIGdqeCX3gwOpgYw1Vy-6" value="" style="edgeStyle=orthogonalEdgeStyle;rounded=0;orthogonalLoop=1;jettySize=auto;html=1;fontSize=13;strokeWidth=2;" parent="IEIGdqeCX3gwOpgYw1Vy-1" source="IEIGdqeCX3gwOpgYw1Vy-3" target="IEIGdqeCX3gwOpgYw1Vy-5" edge="1">
          <mxGeometry relative="1" as="geometry" />
        </mxCell>
        <mxCell id="IEIGdqeCX3gwOpgYw1Vy-7" value="去hotspot源码下看下Linux系统下面的&lt;br&gt;DefaultSelectorProvider实现" style="edgeLabel;html=1;align=center;verticalAlign=middle;resizable=0;points=[];fontSize=13;" parent="IEIGdqeCX3gwOpgYw1Vy-6" vertex="1" connectable="0">
          <mxGeometry x="-0.375" relative="1" as="geometry">
            <mxPoint y="5" as="offset" />
          </mxGeometry>
        </mxCell>
        <mxCell id="IEIGdqeCX3gwOpgYw1Vy-3" value="SelectorProvider.provider()" style="rounded=0;whiteSpace=wrap;html=1;fontSize=13;strokeWidth=2;fillColor=#FFFFFF;verticalAlign=middle;" parent="IEIGdqeCX3gwOpgYw1Vy-1" vertex="1">
          <mxGeometry x="40" y="110" width="160" height="40" as="geometry" />
        </mxCell>
        <mxCell id="IEIGdqeCX3gwOpgYw1Vy-9" value="" style="edgeStyle=orthogonalEdgeStyle;rounded=0;orthogonalLoop=1;jettySize=auto;html=1;fontSize=13;strokeWidth=2;" parent="IEIGdqeCX3gwOpgYw1Vy-1" source="IEIGdqeCX3gwOpgYw1Vy-5" target="IEIGdqeCX3gwOpgYw1Vy-8" edge="1">
          <mxGeometry relative="1" as="geometry" />
        </mxCell>
        <mxCell id="IEIGdqeCX3gwOpgYw1Vy-10" value="Linux系统下是epoll实现" style="edgeLabel;html=1;align=center;verticalAlign=middle;resizable=0;points=[];fontSize=13;" parent="IEIGdqeCX3gwOpgYw1Vy-9" vertex="1" connectable="0">
          <mxGeometry x="-0.2083" y="-1" relative="1" as="geometry">
            <mxPoint as="offset" />
          </mxGeometry>
        </mxCell>
        <mxCell id="IEIGdqeCX3gwOpgYw1Vy-5" value="DefaultSelectorProvider.create()" style="rounded=0;whiteSpace=wrap;html=1;fontSize=13;strokeWidth=2;fillColor=#FFFFFF;verticalAlign=middle;" parent="IEIGdqeCX3gwOpgYw1Vy-1" vertex="1">
          <mxGeometry x="20" y="220" width="200" height="40" as="geometry" />
        </mxCell>
        <mxCell id="IEIGdqeCX3gwOpgYw1Vy-12" value="" style="edgeStyle=orthogonalEdgeStyle;rounded=0;orthogonalLoop=1;jettySize=auto;html=1;fontSize=13;strokeWidth=2;" parent="IEIGdqeCX3gwOpgYw1Vy-1" source="IEIGdqeCX3gwOpgYw1Vy-8" target="IEIGdqeCX3gwOpgYw1Vy-11" edge="1">
          <mxGeometry relative="1" as="geometry" />
        </mxCell>
        <mxCell id="IEIGdqeCX3gwOpgYw1Vy-13" value="返回selector对象" style="edgeLabel;html=1;align=center;verticalAlign=middle;resizable=0;points=[];fontSize=13;" parent="IEIGdqeCX3gwOpgYw1Vy-12" vertex="1" connectable="0">
          <mxGeometry x="-0.1488" y="-1" relative="1" as="geometry">
            <mxPoint as="offset" />
          </mxGeometry>
        </mxCell>
        <mxCell id="IEIGdqeCX3gwOpgYw1Vy-8" value="EPollSelectorProvider.openSelector()" style="rounded=0;whiteSpace=wrap;html=1;fontSize=13;strokeWidth=2;fillColor=#FFFFFF;verticalAlign=middle;" parent="IEIGdqeCX3gwOpgYw1Vy-1" vertex="1">
          <mxGeometry x="10" y="310" width="220" height="40" as="geometry" />
        </mxCell>
        <mxCell id="IEIGdqeCX3gwOpgYw1Vy-15" value="" style="edgeStyle=orthogonalEdgeStyle;rounded=0;orthogonalLoop=1;jettySize=auto;html=1;fontSize=13;strokeWidth=2;" parent="IEIGdqeCX3gwOpgYw1Vy-1" source="IEIGdqeCX3gwOpgYw1Vy-11" target="IEIGdqeCX3gwOpgYw1Vy-14" edge="1">
          <mxGeometry relative="1" as="geometry" />
        </mxCell>
        <mxCell id="FPpI28Vqq485mmJh-Fgz-8" style="edgeStyle=orthogonalEdgeStyle;rounded=0;orthogonalLoop=1;jettySize=auto;html=1;exitX=1;exitY=0.5;exitDx=0;exitDy=0;entryX=0;entryY=0.5;entryDx=0;entryDy=0;strokeWidth=2;dashed=1;" edge="1" parent="IEIGdqeCX3gwOpgYw1Vy-1" source="IEIGdqeCX3gwOpgYw1Vy-11" target="FPpI28Vqq485mmJh-Fgz-6">
          <mxGeometry relative="1" as="geometry" />
        </mxCell>
        <mxCell id="IEIGdqeCX3gwOpgYw1Vy-11" value="new EPollSelectorImpl(this)" style="rounded=0;whiteSpace=wrap;html=1;fontSize=13;strokeWidth=2;fillColor=#FF3333;verticalAlign=middle;" parent="IEIGdqeCX3gwOpgYw1Vy-1" vertex="1">
          <mxGeometry x="20" y="390" width="200" height="30" as="geometry" />
        </mxCell>
        <mxCell id="IEIGdqeCX3gwOpgYw1Vy-17" value="" style="edgeStyle=orthogonalEdgeStyle;rounded=0;orthogonalLoop=1;jettySize=auto;html=1;fontSize=13;strokeWidth=2;" parent="IEIGdqeCX3gwOpgYw1Vy-1" source="IEIGdqeCX3gwOpgYw1Vy-14" target="IEIGdqeCX3gwOpgYw1Vy-16" edge="1">
          <mxGeometry relative="1" as="geometry" />
        </mxCell>
        <mxCell id="IEIGdqeCX3gwOpgYw1Vy-18" value="创建Epoll实例，用文件描述符epfd代表" style="edgeLabel;html=1;align=center;verticalAlign=middle;resizable=0;points=[];fontSize=13;" parent="IEIGdqeCX3gwOpgYw1Vy-17" vertex="1" connectable="0">
          <mxGeometry x="-0.1845" relative="1" as="geometry">
            <mxPoint as="offset" />
          </mxGeometry>
        </mxCell>
        <mxCell id="FPpI28Vqq485mmJh-Fgz-11" style="edgeStyle=orthogonalEdgeStyle;rounded=0;orthogonalLoop=1;jettySize=auto;html=1;exitX=1;exitY=0.5;exitDx=0;exitDy=0;entryX=0;entryY=0.5;entryDx=0;entryDy=0;strokeWidth=2;dashed=1;" edge="1" parent="IEIGdqeCX3gwOpgYw1Vy-1" source="IEIGdqeCX3gwOpgYw1Vy-14" target="FPpI28Vqq485mmJh-Fgz-9">
          <mxGeometry relative="1" as="geometry" />
        </mxCell>
        <mxCell id="IEIGdqeCX3gwOpgYw1Vy-14" value="new EPollArrayWrapper()" style="rounded=0;whiteSpace=wrap;html=1;fontSize=13;strokeWidth=2;fillColor=#FFFFFF;verticalAlign=middle;" parent="IEIGdqeCX3gwOpgYw1Vy-1" vertex="1">
          <mxGeometry x="20" y="450" width="200" height="30" as="geometry" />
        </mxCell>
        <mxCell id="IEIGdqeCX3gwOpgYw1Vy-20" value="" style="edgeStyle=orthogonalEdgeStyle;rounded=0;orthogonalLoop=1;jettySize=auto;html=1;fontSize=13;strokeWidth=2;" parent="IEIGdqeCX3gwOpgYw1Vy-1" source="IEIGdqeCX3gwOpgYw1Vy-16" target="IEIGdqeCX3gwOpgYw1Vy-19" edge="1">
          <mxGeometry relative="1" as="geometry" />
        </mxCell>
        <mxCell id="IEIGdqeCX3gwOpgYw1Vy-16" value="epfd = epoolCreate()" style="rounded=0;whiteSpace=wrap;html=1;fontSize=13;strokeWidth=2;fillColor=#FFFFFF;verticalAlign=middle;" parent="IEIGdqeCX3gwOpgYw1Vy-1" vertex="1">
          <mxGeometry x="20" y="530" width="200" height="30" as="geometry" />
        </mxCell>
        <mxCell id="IEIGdqeCX3gwOpgYw1Vy-22" value="" style="edgeStyle=orthogonalEdgeStyle;rounded=0;orthogonalLoop=1;jettySize=auto;html=1;fontSize=13;strokeWidth=2;" parent="IEIGdqeCX3gwOpgYw1Vy-1" source="IEIGdqeCX3gwOpgYw1Vy-19" target="IEIGdqeCX3gwOpgYw1Vy-21" edge="1">
          <mxGeometry relative="1" as="geometry" />
        </mxCell>
        <mxCell id="IEIGdqeCX3gwOpgYw1Vy-23" value="调用Linux内核函数epoll_create创建epoll实例" style="edgeLabel;html=1;align=center;verticalAlign=middle;resizable=0;points=[];fontSize=13;fontColor=#FF0000;" parent="IEIGdqeCX3gwOpgYw1Vy-22" vertex="1" connectable="0">
          <mxGeometry x="0.0568" relative="1" as="geometry">
            <mxPoint as="offset" />
          </mxGeometry>
        </mxCell>
        <mxCell id="IEIGdqeCX3gwOpgYw1Vy-19" value="Java_sun_nio_ch_EpollArray&lt;br&gt;Wrapper_epollCreate" style="rounded=0;whiteSpace=wrap;html=1;fontSize=13;strokeWidth=2;fillColor=#FFFFFF;verticalAlign=middle;" parent="IEIGdqeCX3gwOpgYw1Vy-1" vertex="1">
          <mxGeometry x="20" y="590" width="200" height="40" as="geometry" />
        </mxCell>
        <mxCell id="IEIGdqeCX3gwOpgYw1Vy-21" value="epfd = epoll_create(256)" style="rounded=0;whiteSpace=wrap;html=1;fontSize=13;strokeWidth=2;fillColor=#FF3333;verticalAlign=middle;" parent="IEIGdqeCX3gwOpgYw1Vy-1" vertex="1">
          <mxGeometry x="20" y="690" width="200" height="40" as="geometry" />
        </mxCell>
        <mxCell id="FPpI28Vqq485mmJh-Fgz-2" value="" style="edgeStyle=orthogonalEdgeStyle;rounded=0;orthogonalLoop=1;jettySize=auto;html=1;strokeWidth=2;" edge="1" parent="IEIGdqeCX3gwOpgYw1Vy-1" source="FPpI28Vqq485mmJh-Fgz-0" target="FPpI28Vqq485mmJh-Fgz-1">
          <mxGeometry relative="1" as="geometry" />
        </mxCell>
        <mxCell id="FPpI28Vqq485mmJh-Fgz-0" value="socketChannel.register(selector,&lt;br&gt;SelectionKey.OP_READ)" style="rounded=0;whiteSpace=wrap;html=1;fontSize=13;strokeWidth=2;fillColor=#97D077;verticalAlign=middle;" vertex="1" parent="IEIGdqeCX3gwOpgYw1Vy-1">
          <mxGeometry x="410" y="40" width="240" height="40" as="geometry" />
        </mxCell>
        <mxCell id="FPpI28Vqq485mmJh-Fgz-5" value="" style="edgeStyle=orthogonalEdgeStyle;rounded=0;orthogonalLoop=1;jettySize=auto;html=1;strokeWidth=2;" edge="1" parent="IEIGdqeCX3gwOpgYw1Vy-1" source="FPpI28Vqq485mmJh-Fgz-1" target="FPpI28Vqq485mmJh-Fgz-4">
          <mxGeometry relative="1" as="geometry" />
        </mxCell>
        <mxCell id="FPpI28Vqq485mmJh-Fgz-1" value="((AbstractSelector)sel).register(this,ops,att)" style="rounded=0;whiteSpace=wrap;html=1;fontSize=13;strokeWidth=2;fillColor=#FFFFFF;verticalAlign=middle;" vertex="1" parent="IEIGdqeCX3gwOpgYw1Vy-1">
          <mxGeometry x="400" y="120" width="260" height="40" as="geometry" />
        </mxCell>
        <mxCell id="FPpI28Vqq485mmJh-Fgz-7" value="" style="edgeStyle=orthogonalEdgeStyle;rounded=0;orthogonalLoop=1;jettySize=auto;html=1;strokeWidth=2;" edge="1" parent="IEIGdqeCX3gwOpgYw1Vy-1" source="FPpI28Vqq485mmJh-Fgz-4" target="FPpI28Vqq485mmJh-Fgz-6">
          <mxGeometry relative="1" as="geometry" />
        </mxCell>
        <mxCell id="FPpI28Vqq485mmJh-Fgz-4" value="SelectorImpl.register" style="rounded=0;whiteSpace=wrap;html=1;fontSize=13;strokeWidth=2;fillColor=#FFFFFF;verticalAlign=middle;" vertex="1" parent="IEIGdqeCX3gwOpgYw1Vy-1">
          <mxGeometry x="450" y="200" width="160" height="40" as="geometry" />
        </mxCell>
        <mxCell id="FPpI28Vqq485mmJh-Fgz-10" value="" style="edgeStyle=orthogonalEdgeStyle;rounded=0;orthogonalLoop=1;jettySize=auto;html=1;strokeWidth=2;" edge="1" parent="IEIGdqeCX3gwOpgYw1Vy-1" source="FPpI28Vqq485mmJh-Fgz-6" target="FPpI28Vqq485mmJh-Fgz-9">
          <mxGeometry relative="1" as="geometry" />
        </mxCell>
        <mxCell id="FPpI28Vqq485mmJh-Fgz-12" value="将fd(就是socketChannel)&lt;br&gt;添加到内部的集合里" style="edgeLabel;html=1;align=center;verticalAlign=middle;resizable=0;points=[];fontColor=#FF0000;fontStyle=1" vertex="1" connectable="0" parent="FPpI28Vqq485mmJh-Fgz-10">
          <mxGeometry x="-0.1191" relative="1" as="geometry">
            <mxPoint as="offset" />
          </mxGeometry>
        </mxCell>
        <mxCell id="FPpI28Vqq485mmJh-Fgz-6" value="EPollSelectorImpl.implRegister" style="rounded=0;whiteSpace=wrap;html=1;fontSize=13;strokeWidth=2;fillColor=#FFFFFF;verticalAlign=middle;" vertex="1" parent="IEIGdqeCX3gwOpgYw1Vy-1">
          <mxGeometry x="435" y="290" width="190" height="40" as="geometry" />
        </mxCell>
        <mxCell id="FPpI28Vqq485mmJh-Fgz-21" style="edgeStyle=orthogonalEdgeStyle;rounded=0;orthogonalLoop=1;jettySize=auto;html=1;exitX=1;exitY=0.5;exitDx=0;exitDy=0;entryX=0;entryY=0.5;entryDx=0;entryDy=0;fontColor=#FF0000;strokeWidth=2;dashed=1;" edge="1" parent="IEIGdqeCX3gwOpgYw1Vy-1" source="FPpI28Vqq485mmJh-Fgz-9" target="FPpI28Vqq485mmJh-Fgz-19">
          <mxGeometry relative="1" as="geometry" />
        </mxCell>
        <mxCell id="FPpI28Vqq485mmJh-Fgz-9" value="pollWrapper.add(fd)" style="rounded=0;whiteSpace=wrap;html=1;fontSize=13;strokeWidth=2;fillColor=#FFFFFF;verticalAlign=middle;" vertex="1" parent="IEIGdqeCX3gwOpgYw1Vy-1">
          <mxGeometry x="435" y="410" width="190" height="40" as="geometry" />
        </mxCell>
        <mxCell id="FPpI28Vqq485mmJh-Fgz-13" value="文件描述符(file descriptor)，Linux内核为高效管理已被打开的“文件”所创建的索引，用该索引可以找到文件" style="shape=note;strokeWidth=2;fontSize=14;size=20;whiteSpace=wrap;html=1;fillColor=#fff2cc;strokeColor=#d6b656;fontColor=#666600;rounded=0;verticalAlign=middle;align=left;" vertex="1" parent="IEIGdqeCX3gwOpgYw1Vy-1">
          <mxGeometry x="250" y="505" width="240" height="80" as="geometry" />
        </mxCell>
        <mxCell id="FPpI28Vqq485mmJh-Fgz-16" value="" style="edgeStyle=orthogonalEdgeStyle;rounded=0;orthogonalLoop=1;jettySize=auto;html=1;fontColor=#FF0000;strokeWidth=2;" edge="1" parent="IEIGdqeCX3gwOpgYw1Vy-1" source="FPpI28Vqq485mmJh-Fgz-14" target="FPpI28Vqq485mmJh-Fgz-15">
          <mxGeometry relative="1" as="geometry" />
        </mxCell>
        <mxCell id="FPpI28Vqq485mmJh-Fgz-14" value="selector.select()" style="rounded=0;whiteSpace=wrap;html=1;fontSize=13;strokeWidth=2;fillColor=#97D077;verticalAlign=middle;" vertex="1" parent="IEIGdqeCX3gwOpgYw1Vy-1">
          <mxGeometry x="800" y="40" width="130" height="40" as="geometry" />
        </mxCell>
        <mxCell id="FPpI28Vqq485mmJh-Fgz-18" value="" style="edgeStyle=orthogonalEdgeStyle;rounded=0;orthogonalLoop=1;jettySize=auto;html=1;fontColor=#FF0000;strokeWidth=2;" edge="1" parent="IEIGdqeCX3gwOpgYw1Vy-1" source="FPpI28Vqq485mmJh-Fgz-15" target="FPpI28Vqq485mmJh-Fgz-17">
          <mxGeometry relative="1" as="geometry" />
        </mxCell>
        <mxCell id="FPpI28Vqq485mmJh-Fgz-15" value="SelectorImpl.select" style="rounded=0;whiteSpace=wrap;html=1;fontSize=13;strokeWidth=2;fillColor=#FFFFFF;verticalAlign=middle;" vertex="1" parent="IEIGdqeCX3gwOpgYw1Vy-1">
          <mxGeometry x="800" y="120" width="130" height="40" as="geometry" />
        </mxCell>
        <mxCell id="FPpI28Vqq485mmJh-Fgz-20" value="" style="edgeStyle=orthogonalEdgeStyle;rounded=0;orthogonalLoop=1;jettySize=auto;html=1;fontColor=#FF0000;strokeWidth=2;" edge="1" parent="IEIGdqeCX3gwOpgYw1Vy-1" source="FPpI28Vqq485mmJh-Fgz-17" target="FPpI28Vqq485mmJh-Fgz-19">
          <mxGeometry relative="1" as="geometry" />
        </mxCell>
        <mxCell id="FPpI28Vqq485mmJh-Fgz-17" value="EPollSelectorImpl.doSelect" style="rounded=0;whiteSpace=wrap;html=1;fontSize=13;strokeWidth=2;fillColor=#FFFFFF;verticalAlign=middle;" vertex="1" parent="IEIGdqeCX3gwOpgYw1Vy-1">
          <mxGeometry x="770" y="200" width="190" height="40" as="geometry" />
        </mxCell>
        <mxCell id="FPpI28Vqq485mmJh-Fgz-23" value="" style="edgeStyle=orthogonalEdgeStyle;rounded=0;orthogonalLoop=1;jettySize=auto;html=1;fontColor=#FF0000;strokeWidth=2;" edge="1" parent="IEIGdqeCX3gwOpgYw1Vy-1" source="FPpI28Vqq485mmJh-Fgz-19" target="FPpI28Vqq485mmJh-Fgz-22">
          <mxGeometry relative="1" as="geometry" />
        </mxCell>
        <mxCell id="FPpI28Vqq485mmJh-Fgz-24" value="这一步才真正的注册绑定事件" style="edgeLabel;html=1;align=center;verticalAlign=middle;resizable=0;points=[];fontColor=#000000;" vertex="1" connectable="0" parent="FPpI28Vqq485mmJh-Fgz-23">
          <mxGeometry x="-0.2152" y="1" relative="1" as="geometry">
            <mxPoint as="offset" />
          </mxGeometry>
        </mxCell>
        <mxCell id="FPpI28Vqq485mmJh-Fgz-19" value="pollWrapper.poll(timeout)" style="rounded=0;whiteSpace=wrap;html=1;fontSize=13;strokeWidth=2;fillColor=#FFFFFF;verticalAlign=middle;" vertex="1" parent="IEIGdqeCX3gwOpgYw1Vy-1">
          <mxGeometry x="770" y="280" width="190" height="40" as="geometry" />
        </mxCell>
        <mxCell id="FPpI28Vqq485mmJh-Fgz-26" value="" style="edgeStyle=orthogonalEdgeStyle;rounded=0;orthogonalLoop=1;jettySize=auto;html=1;fontColor=#000000;strokeWidth=2;" edge="1" parent="IEIGdqeCX3gwOpgYw1Vy-1" source="FPpI28Vqq485mmJh-Fgz-22" target="FPpI28Vqq485mmJh-Fgz-25">
          <mxGeometry relative="1" as="geometry" />
        </mxCell>
        <mxCell id="FPpI28Vqq485mmJh-Fgz-37" value="" style="edgeStyle=orthogonalEdgeStyle;rounded=0;orthogonalLoop=1;jettySize=auto;html=1;fontColor=#000000;strokeWidth=2;" edge="1" parent="IEIGdqeCX3gwOpgYw1Vy-1" source="FPpI28Vqq485mmJh-Fgz-22" target="FPpI28Vqq485mmJh-Fgz-36">
          <mxGeometry relative="1" as="geometry" />
        </mxCell>
        <mxCell id="FPpI28Vqq485mmJh-Fgz-22" value="updateRegistrations()" style="rounded=0;whiteSpace=wrap;html=1;fontSize=13;strokeWidth=2;fillColor=#FFFFFF;verticalAlign=middle;" vertex="1" parent="IEIGdqeCX3gwOpgYw1Vy-1">
          <mxGeometry x="770" y="370" width="190" height="40" as="geometry" />
        </mxCell>
        <mxCell id="FPpI28Vqq485mmJh-Fgz-28" value="" style="edgeStyle=orthogonalEdgeStyle;rounded=0;orthogonalLoop=1;jettySize=auto;html=1;fontColor=#000000;strokeWidth=2;" edge="1" parent="IEIGdqeCX3gwOpgYw1Vy-1" source="FPpI28Vqq485mmJh-Fgz-25" target="FPpI28Vqq485mmJh-Fgz-27">
          <mxGeometry relative="1" as="geometry" />
        </mxCell>
        <mxCell id="FPpI28Vqq485mmJh-Fgz-29" value="调用native方法epollWait()等待文件&lt;br&gt;描述符epfd(就是epoll实例)上的事件" style="edgeLabel;html=1;align=center;verticalAlign=middle;resizable=0;points=[];fontColor=#FF0000;" vertex="1" connectable="0" parent="FPpI28Vqq485mmJh-Fgz-28">
          <mxGeometry x="-0.2964" relative="1" as="geometry">
            <mxPoint as="offset" />
          </mxGeometry>
        </mxCell>
        <mxCell id="FPpI28Vqq485mmJh-Fgz-25" value="update = epollWait(pollArrayAddress,&lt;br&gt;NUM_EPOLLEVENTS,timeout,epfd)" style="rounded=0;whiteSpace=wrap;html=1;fontSize=13;strokeWidth=2;fillColor=#FFFFFF;verticalAlign=middle;" vertex="1" parent="IEIGdqeCX3gwOpgYw1Vy-1">
          <mxGeometry x="745" y="460" width="240" height="40" as="geometry" />
        </mxCell>
        <mxCell id="FPpI28Vqq485mmJh-Fgz-31" value="" style="edgeStyle=orthogonalEdgeStyle;rounded=0;orthogonalLoop=1;jettySize=auto;html=1;fontColor=#FF0000;strokeWidth=2;" edge="1" parent="IEIGdqeCX3gwOpgYw1Vy-1" source="FPpI28Vqq485mmJh-Fgz-27" target="FPpI28Vqq485mmJh-Fgz-30">
          <mxGeometry relative="1" as="geometry" />
        </mxCell>
        <mxCell id="FPpI28Vqq485mmJh-Fgz-32" value="调用Linux内核函数epoll_wait" style="edgeLabel;html=1;align=center;verticalAlign=middle;resizable=0;points=[];fontColor=#000000;" vertex="1" connectable="0" parent="FPpI28Vqq485mmJh-Fgz-31">
          <mxGeometry x="-0.1277" y="1" relative="1" as="geometry">
            <mxPoint as="offset" />
          </mxGeometry>
        </mxCell>
        <mxCell id="FPpI28Vqq485mmJh-Fgz-27" value="Java_sun_nio_ch_EPollArrayWrapper&lt;br&gt;_epollWait" style="rounded=0;whiteSpace=wrap;html=1;fontSize=13;strokeWidth=2;fillColor=#FFFFFF;verticalAlign=middle;" vertex="1" parent="IEIGdqeCX3gwOpgYw1Vy-1">
          <mxGeometry x="745" y="565" width="240" height="40" as="geometry" />
        </mxCell>
        <mxCell id="FPpI28Vqq485mmJh-Fgz-35" style="edgeStyle=orthogonalEdgeStyle;rounded=0;orthogonalLoop=1;jettySize=auto;html=1;exitX=1;exitY=0.5;exitDx=0;exitDy=0;entryX=0;entryY=0.5;entryDx=0;entryDy=0;entryPerimeter=0;fontColor=#000000;strokeWidth=2;dashed=1;" edge="1" parent="IEIGdqeCX3gwOpgYw1Vy-1" source="FPpI28Vqq485mmJh-Fgz-30" target="FPpI28Vqq485mmJh-Fgz-33">
          <mxGeometry relative="1" as="geometry" />
        </mxCell>
        <mxCell id="FPpI28Vqq485mmJh-Fgz-30" value="epoll_wait" style="rounded=0;whiteSpace=wrap;html=1;fontSize=13;strokeWidth=2;fillColor=#FF3333;verticalAlign=middle;" vertex="1" parent="IEIGdqeCX3gwOpgYw1Vy-1">
          <mxGeometry x="817.5" y="660" width="95" height="40" as="geometry" />
        </mxCell>
        <mxCell id="FPpI28Vqq485mmJh-Fgz-33" value="当socket收到数据后，中断程序调用回调函数给epoll实例的事件就绪列表rdlist里添加该socket引用(这块是操作系统实现的)，当程序执行到epoll_wait时，如果rdlist已经引用了socket，那么epoll_wait直接返回，如果rdlist为空，阻塞进程" style="shape=note;strokeWidth=2;fontSize=14;size=20;whiteSpace=wrap;html=1;fillColor=#fff2cc;strokeColor=#d6b656;fontColor=#666600;rounded=0;verticalAlign=middle;align=left;" vertex="1" parent="IEIGdqeCX3gwOpgYw1Vy-1">
          <mxGeometry x="1020" y="680" width="320" height="100" as="geometry" />
        </mxCell>
        <mxCell id="FPpI28Vqq485mmJh-Fgz-34" value="中断是系统用来响应硬件设备请求的一种机制，操作系统接收到硬件的中断请求，会打断正在执行的进程，然后调用内核中的中断处理程序来响应请求" style="shape=note;strokeWidth=2;fontSize=14;size=20;whiteSpace=wrap;html=1;fillColor=#fff2cc;strokeColor=#d6b656;fontColor=#666600;rounded=0;verticalAlign=middle;" vertex="1" parent="IEIGdqeCX3gwOpgYw1Vy-1">
          <mxGeometry x="1020" y="810" width="320" height="80" as="geometry" />
        </mxCell>
        <mxCell id="FPpI28Vqq485mmJh-Fgz-39" value="" style="edgeStyle=orthogonalEdgeStyle;rounded=0;orthogonalLoop=1;jettySize=auto;html=1;fontColor=#000000;strokeWidth=2;" edge="1" parent="IEIGdqeCX3gwOpgYw1Vy-1" source="FPpI28Vqq485mmJh-Fgz-36" target="FPpI28Vqq485mmJh-Fgz-38">
          <mxGeometry relative="1" as="geometry" />
        </mxCell>
        <mxCell id="FPpI28Vqq485mmJh-Fgz-42" value="调用native方法epollCtl()进行事件绑定" style="edgeLabel;html=1;align=center;verticalAlign=middle;resizable=0;points=[];fontColor=#FF3333;" vertex="1" connectable="0" parent="FPpI28Vqq485mmJh-Fgz-39">
          <mxGeometry x="-0.2" relative="1" as="geometry">
            <mxPoint as="offset" />
          </mxGeometry>
        </mxCell>
        <mxCell id="FPpI28Vqq485mmJh-Fgz-36" value="epollCtl(epfd,opcode,fd,events)" style="rounded=0;whiteSpace=wrap;html=1;fontSize=13;strokeWidth=2;fillColor=#FFFFFF;verticalAlign=middle;" vertex="1" parent="IEIGdqeCX3gwOpgYw1Vy-1">
          <mxGeometry x="1140" y="370" width="190" height="40" as="geometry" />
        </mxCell>
        <mxCell id="FPpI28Vqq485mmJh-Fgz-41" value="" style="edgeStyle=orthogonalEdgeStyle;rounded=0;orthogonalLoop=1;jettySize=auto;html=1;fontColor=#000000;strokeWidth=2;" edge="1" parent="IEIGdqeCX3gwOpgYw1Vy-1" source="FPpI28Vqq485mmJh-Fgz-38" target="FPpI28Vqq485mmJh-Fgz-40">
          <mxGeometry relative="1" as="geometry" />
        </mxCell>
        <mxCell id="FPpI28Vqq485mmJh-Fgz-43" value="调用Linux内核函数epoll_ctl" style="edgeLabel;html=1;align=center;verticalAlign=middle;resizable=0;points=[];fontColor=#000000;" vertex="1" connectable="0" parent="FPpI28Vqq485mmJh-Fgz-41">
          <mxGeometry x="-0.1927" relative="1" as="geometry">
            <mxPoint as="offset" />
          </mxGeometry>
        </mxCell>
        <mxCell id="FPpI28Vqq485mmJh-Fgz-38" value="Java_sun_nio_EPollArrayWrapper_epollCtl" style="rounded=0;whiteSpace=wrap;html=1;fontSize=13;strokeWidth=2;fillColor=#FFFFFF;verticalAlign=middle;" vertex="1" parent="IEIGdqeCX3gwOpgYw1Vy-1">
          <mxGeometry x="1105" y="465" width="260" height="40" as="geometry" />
        </mxCell>
        <mxCell id="FPpI28Vqq485mmJh-Fgz-40" value="epoll_ctl" style="rounded=0;whiteSpace=wrap;html=1;fontSize=13;strokeWidth=2;fillColor=#FF0000;verticalAlign=middle;" vertex="1" parent="IEIGdqeCX3gwOpgYw1Vy-1">
          <mxGeometry x="1172.5" y="560" width="125" height="40" as="geometry" />
        </mxCell>
      </root>
    </mxGraphModel>
  </diagram>
</mxfile>
